<?xml version="1.0" encoding="utf-8"?>
<!-- Generator: Adobe Illustrator 22.1.0, SVG Export Plug-In . SVG Version: 6.00 Build 0)  -->
<svg version="1.1" id="Camada_1" xmlns="http://www.w3.org/2000/svg" xmlns:xlink="http://www.w3.org/1999/xlink" x="0px" y="0px"
	 viewBox="0 0 95.3 27.9" style="enable-background:new 0 0 95.3 27.9;" xml:space="preserve">
<title>totvs-icon-text-black</title>
<g id="Symbols">
	<g id="HEADER_MVP_01">
		<g id="logo_totvs_devs_neg">
			<g id="Group-16">
				<path id="Fill-2" d="M44.5,9.2h-3.3v12c0,0.2-0.2,0.4-0.4,0.4H38c-0.2,0-0.4-0.2-0.4-0.4v-12h-3.4c-0.2,0-0.4-0.1-0.4-0.3l0,0
					V6.6c0-0.2,0.2-0.4,0.4-0.4l0,0h10.3c0.2,0,0.4,0.2,0.4,0.4v2.1C44.9,9,44.7,9.2,44.5,9.2"/>
				<path id="Fill-4" d="M54.4,12.7c0-2.5-0.8-3.5-2.6-3.5s-2.5,1-2.5,3.5v2.5c0,2.5,0.8,3.5,2.5,3.5s2.6-1,2.6-3.5V12.7z
					 M51.8,21.7c-3.4,0-6.1-1.8-6.1-6.6v-2.4c0-4.8,2.7-6.6,6.1-6.6s6.1,1.8,6.1,6.6v2.5C57.9,19.9,55.2,21.7,51.8,21.7z"/>
				<path id="Fill-6" d="M69.4,9.2H66v12c0,0.2-0.2,0.4-0.4,0.4l0,0h-2.7c-0.2,0-0.4-0.2-0.4-0.4v-12h-3.4c-0.2,0-0.4-0.2-0.4-0.4
					l0,0l0,0V6.6c0-0.2,0.2-0.4,0.4-0.4l0,0h10.2c0.2,0,0.4,0.2,0.4,0.4l0,0l0,0v2.1C69.8,9,69.6,9.2,69.4,9.2L69.4,9.2L69.4,9.2"/>
				<path id="Fill-8" d="M83.8,6.7l-3,12.8c-0.5,2-2,2.3-3.4,2.3s-3-0.3-3.4-2.3L70.9,6.7V6.6c0-0.2,0.1-0.3,0.3-0.3l0,0h2.9
					c0.2,0,0.4,0.2,0.4,0.4l2.6,11.9c0,0.2,0.1,0.3,0.3,0.3s0.3-0.1,0.3-0.3l2.6-11.9c0-0.2,0.2-0.4,0.4-0.4h2.9
					c0.2,0,0.3,0.1,0.3,0.3l0,0L83.8,6.7"/>
				<path id="Fill-10" d="M89.7,21.7c-1.3,0-2.6-0.1-3.9-0.5c-0.2-0.1-0.4-0.2-0.4-0.4v-2c0-0.2,0.1-0.4,0.3-0.4h0.2
					c0.8,0.1,3.1,0.2,3.9,0.2c1.4,0,1.8-0.5,1.8-1.4c0-0.6-0.3-0.9-1.4-1.6L87.3,14c-1.5-0.7-2.5-2.3-2.4-3.9c0-2.3,1.3-4,5.3-4
					c1.5,0,2.9,0.2,4.4,0.5c0.2,0,0.3,0.2,0.3,0.4v2c0,0.2-0.1,0.3-0.3,0.4h-0.1c-0.6,0-3-0.2-4.4-0.2c-1.2,0-1.6,0.4-1.6,1.1
					c0,0.6,0.3,0.8,1.4,1.4l2.6,1.3c2.2,1.1,2.8,2.5,2.8,4.2C95.3,19.4,93.8,21.7,89.7,21.7"/>
				<path id="Fill-12" d="M17.9,11.9c-0.5-0.5-4.9-1.7-8.5-2.5c0,2.8,0.1,5.8,0.5,6.3c0.5,0.5,4.9,1.7,8.5,2.5
					C18.4,15.5,18.3,12.4,17.9,11.9"/>
				<path id="Fill-14" d="M23.3,19.1c-1.7-0.1-3.3-0.4-4.9-0.9c0,2.4-0.2,4.6-0.5,4.9C17,23.5,5.3,20.6,4.5,19.8
					c-0.7-1-0.7-10.6,0-11.3c1.7,0.1,3.3,0.4,4.9,0.9c0-2.4,0.2-4.6,0.5-4.9c0.9-0.3,12.5,2.6,13.4,3.4C24,8.9,24,18.5,23.3,19.1
					 M13.9,0c-7.7,0-14,6.3-14,14s6.3,14,14,14s14-6.3,14-14S21.7,0,13.9,0"/>
			</g>
		</g>
	</g>
</g>
</svg>
