<?xml version="1.0" encoding="utf-8"?>
<!-- Generator: Adobe Illustrator 24.3.0, SVG Export Plug-In . SVG Version: 6.00 Build 0)  -->
<svg version="1.1"
	 id="Camada_1" xmlns:cc="http://creativecommons.org/ns#" xmlns:dc="http://purl.org/dc/elements/1.1/" xmlns:inkscape="http://www.inkscape.org/namespaces/inkscape" xmlns:rdf="http://www.w3.org/1999/02/22-rdf-syntax-ns#" xmlns:sodipodi="http://sodipodi.sourceforge.net/DTD/sodipodi-0.dtd" xmlns:svg="http://www.w3.org/2000/svg"
	 xmlns="http://www.w3.org/2000/svg" xmlns:xlink="http://www.w3.org/1999/xlink" x="0px" y="0px" viewBox="0 0 95.3 27.9"
	 style="enable-background:new 0 0 95.3 27.9;" xml:space="preserve">
<style type="text/css">
	.st0{fill:#E5E5E5;}
</style>
<sodipodi:namedview  bordercolor="#666666" borderopacity="1" gridtolerance="10" guidetolerance="10" id="namedview16" inkscape:current-layer="HEADER_MVP_01" inkscape:cx="37.545143" inkscape:cy="12.942327" inkscape:pageopacity="0" inkscape:pageshadow="2" inkscape:window-height="1055" inkscape:window-maximized="1" inkscape:window-width="1920" inkscape:window-x="0" inkscape:window-y="25" inkscape:zoom="27.66002" objecttolerance="10" pagecolor="#ffffff" showgrid="false">
	</sodipodi:namedview>
<g id="Symbols">
	<g id="HEADER_MVP_01">
		<g id="logo_totvs_devs_neg">
			<g id="Group-16">
				<path id="Fill-2" class="st0" d="M46.5,12.3h-1.2v4.3c0,0.1-0.1,0.1-0.1,0.1h-1c-0.1,0-0.1-0.1-0.1-0.1v-4.3h-1.2
					c-0.1,0-0.1,0-0.1-0.1l0,0v-0.8c0-0.1,0.1-0.1,0.1-0.1l0,0h3.7c0.1,0,0.1,0.1,0.1,0.1v0.8C46.6,12.2,46.6,12.3,46.5,12.3"/>
				<path id="Fill-4" class="st0" d="M50,13.5c0-0.9-0.3-1.3-0.9-1.3c-0.6,0-0.9,0.4-0.9,1.3v0.9c0,0.9,0.3,1.3,0.9,1.3
					s0.9-0.4,0.9-1.3V13.5z M49.1,16.8c-1.2,0-2.2-0.6-2.2-2.4v-0.9c0-1.7,1-2.4,2.2-2.4s2.2,0.6,2.2,2.4v0.9
					C51.3,16.1,50.3,16.8,49.1,16.8z"/>
				<path id="Fill-6" class="st0" d="M55.4,12.3h-1.2v4.3c0,0.1-0.1,0.1-0.1,0.1l0,0h-1c-0.1,0-0.1-0.1-0.1-0.1v-4.3h-1.2
					c-0.1,0-0.1-0.1-0.1-0.1l0,0l0,0v-0.8c0-0.1,0.1-0.1,0.1-0.1l0,0h3.7c0.1,0,0.1,0.1,0.1,0.1l0,0l0,0v0.8
					C55.6,12.2,55.5,12.3,55.4,12.3L55.4,12.3L55.4,12.3"/>
				<path id="Fill-8" class="st0" d="M60.6,11.4L59.5,16c-0.2,0.7-0.7,0.8-1.2,0.8s-1.1-0.1-1.2-0.8L56,11.4v0c0-0.1,0-0.1,0.1-0.1
					l0,0h1c0.1,0,0.1,0.1,0.1,0.1l0.9,4.3c0,0.1,0,0.1,0.1,0.1s0.1,0,0.1-0.1l0.9-4.3c0-0.1,0.1-0.1,0.1-0.1h1
					C60.6,11.2,60.6,11.3,60.6,11.4L60.6,11.4L60.6,11.4"/>
				<path id="Fill-10" class="st0" d="M62.7,16.8c-0.5,0-0.9,0-1.4-0.2c-0.1,0-0.1-0.1-0.1-0.1v-0.7c0-0.1,0-0.1,0.1-0.1h0.1
					c0.3,0,1.1,0.1,1.4,0.1c0.5,0,0.6-0.2,0.6-0.5c0-0.2-0.1-0.3-0.5-0.6l-1-0.6c-0.5-0.3-0.9-0.8-0.9-1.4c0-0.8,0.5-1.4,1.9-1.4
					c0.5,0,1,0.1,1.6,0.2c0.1,0,0.1,0.1,0.1,0.1v0.7c0,0.1,0,0.1-0.1,0.1h0c-0.2,0-1.1-0.1-1.6-0.1c-0.4,0-0.6,0.1-0.6,0.4
					c0,0.2,0.1,0.3,0.5,0.5l0.9,0.5c0.8,0.4,1,0.9,1,1.5C64.7,15.9,64.2,16.8,62.7,16.8"/>
				<path id="Fill-12" class="st0" d="M36.9,13.2c-0.2-0.2-1.8-0.6-3.1-0.9c0,1,0,2.1,0.2,2.3c0.2,0.2,1.8,0.6,3.1,0.9
					C37.1,14.5,37.1,13.4,36.9,13.2"/>
				<path id="Fill-14" class="st0" d="M38.9,15.8c-0.6,0-1.2-0.1-1.8-0.3c0,0.9-0.1,1.7-0.2,1.8c-0.3,0.1-4.5-0.9-4.8-1.2
					c-0.3-0.4-0.3-3.8,0-4.1c0.6,0,1.2,0.1,1.8,0.3c0-0.9,0.1-1.7,0.2-1.8c0.3-0.1,4.5,0.9,4.8,1.2C39.1,12.2,39.1,15.6,38.9,15.8
					 M35.5,9c-2.8,0-5,2.3-5,5s2.3,5,5,5s5-2.3,5-5S38.3,9,35.5,9"/>
			</g>
		</g>
	</g>
</g>
</svg>
