<?xml version="1.0" encoding="UTF-8" standalone="no"?>
<svg
   xmlns:dc="http://purl.org/dc/elements/1.1/"
   xmlns:cc="http://creativecommons.org/ns#"
   xmlns:rdf="http://www.w3.org/1999/02/22-rdf-syntax-ns#"
   xmlns:svg="http://www.w3.org/2000/svg"
   xmlns="http://www.w3.org/2000/svg"
   xmlns:sodipodi="http://sodipodi.sourceforge.net/DTD/sodipodi-0.dtd"
   xmlns:inkscape="http://www.inkscape.org/namespaces/inkscape"
   inkscape:version="1.0 (4035a4fb49, 2020-05-01)"
   sodipodi:docname="totvs-icon-bg-1.svg"
   xml:space="preserve"
   style="enable-background:new 0 0 95.3 27.9;"
   viewBox="0 0 95.3 27.9"
   y="0px"
   x="0px"
   id="Camada_1"
   version="1.1"><metadata
   id="metadata19"><rdf:RDF><cc:Work
       rdf:about=""><dc:format>image/svg+xml</dc:format><dc:type
         rdf:resource="http://purl.org/dc/dcmitype/StillImage" /></cc:Work></rdf:RDF></metadata><defs
   id="defs17" />
<style
   id="style2"
   type="text/css">
	.st0{fill:#E5E5E5;}
</style>
<sodipodi:namedview
   inkscape:document-rotation="0"
   showgrid="false"
   pagecolor="#ffffff"
   objecttolerance="10"
   inkscape:zoom="9.7792939"
   inkscape:window-y="25"
   inkscape:window-x="0"
   inkscape:window-width="1920"
   inkscape:window-maximized="1"
   inkscape:window-height="1055"
   inkscape:pageshadow="2"
   inkscape:pageopacity="0"
   inkscape:cy="17.659875"
   inkscape:cx="49.315341"
   inkscape:current-layer="HEADER_MVP_01"
   id="namedview16"
   guidetolerance="10"
   gridtolerance="10"
   borderopacity="1"
   bordercolor="#666666">
	</sodipodi:namedview>
<g
   id="Symbols">
	<g
   id="HEADER_MVP_01">
		<g
   transform="matrix(2.6828655,0,0,2.6829,-80.054396,-23.6106)"
   id="logo_totvs_devs_neg">
			<g
   id="Group-16">
				<path
   d="m 46.5,12.3 h -1.2 v 4.3 c 0,0.1 -0.1,0.1 -0.1,0.1 h -1 c -0.1,0 -0.1,-0.1 -0.1,-0.1 v -4.3 h -1.2 c -0.1,0 -0.1,0 -0.1,-0.1 v 0 -0.8 c 0,-0.1 0.1,-0.1 0.1,-0.1 v 0 h 3.7 c 0.1,0 0.1,0.1 0.1,0.1 v 0.8 c -0.1,0 -0.1,0.1 -0.2,0.1"
   class="st0"
   id="Fill-2" />
				<path
   d="m 50,13.5 c 0,-0.9 -0.3,-1.3 -0.9,-1.3 -0.6,0 -0.9,0.4 -0.9,1.3 v 0.9 c 0,0.9 0.3,1.3 0.9,1.3 0.6,0 0.9,-0.4 0.9,-1.3 z m -0.9,3.3 c -1.2,0 -2.2,-0.6 -2.2,-2.4 v -0.9 c 0,-1.7 1,-2.4 2.2,-2.4 1.2,0 2.2,0.6 2.2,2.4 v 0.9 c 0,1.7 -1,2.4 -2.2,2.4 z"
   class="st0"
   id="Fill-4" />
				<path
   d="m 55.4,12.3 h -1.2 v 4.3 c 0,0.1 -0.1,0.1 -0.1,0.1 v 0 h -1 C 53,16.7 53,16.6 53,16.6 v -4.3 h -1.2 c -0.1,0 -0.1,-0.1 -0.1,-0.1 v 0 0 -0.8 c 0,-0.1 0.1,-0.1 0.1,-0.1 v 0 h 3.7 c 0.1,0 0.1,0.1 0.1,0.1 v 0 0 0.8 c 0,0 -0.1,0.1 -0.2,0.1 v 0 0"
   class="st0"
   id="Fill-6" />
				<path
   d="M 60.6,11.4 59.5,16 c -0.2,0.7 -0.7,0.8 -1.2,0.8 -0.5,0 -1.1,-0.1 -1.2,-0.8 L 56,11.4 v 0 c 0,-0.1 0,-0.1 0.1,-0.1 v 0 h 1 c 0.1,0 0.1,0.1 0.1,0.1 l 0.9,4.3 c 0,0.1 0,0.1 0.1,0.1 0.1,0 0.1,0 0.1,-0.1 l 0.9,-4.3 c 0,-0.1 0.1,-0.1 0.1,-0.1 h 1 c 0.3,-0.1 0.3,0 0.3,0.1 v 0 0"
   class="st0"
   id="Fill-8" />
				<path
   d="m 62.7,16.8 c -0.5,0 -0.9,0 -1.4,-0.2 -0.1,0 -0.1,-0.1 -0.1,-0.1 v -0.7 c 0,-0.1 0,-0.1 0.1,-0.1 h 0.1 c 0.3,0 1.1,0.1 1.4,0.1 0.5,0 0.6,-0.2 0.6,-0.5 0,-0.2 -0.1,-0.3 -0.5,-0.6 l -1,-0.6 C 61.4,13.8 61,13.3 61,12.7 c 0,-0.8 0.5,-1.4 1.9,-1.4 0.5,0 1,0.1 1.6,0.2 0.1,0 0.1,0.1 0.1,0.1 v 0.7 c 0,0.1 0,0.1 -0.1,0.1 v 0 c -0.2,0 -1.1,-0.1 -1.6,-0.1 -0.4,0 -0.6,0.1 -0.6,0.4 0,0.2 0.1,0.3 0.5,0.5 l 0.9,0.5 c 0.8,0.4 1,0.9 1,1.5 0,0.7 -0.5,1.6 -2,1.6"
   class="st0"
   id="Fill-10" />
				<path
   d="m 36.9,13.2 c -0.2,-0.2 -1.8,-0.6 -3.1,-0.9 0,1 0,2.1 0.2,2.3 0.2,0.2 1.8,0.6 3.1,0.9 0,-1 0,-2.1 -0.2,-2.3"
   class="st0"
   id="Fill-12" />
				<path
   d="m 38.9,15.8 c -0.6,0 -1.2,-0.1 -1.8,-0.3 0,0.9 -0.1,1.7 -0.2,1.8 -0.3,0.1 -4.5,-0.9 -4.8,-1.2 -0.3,-0.4 -0.3,-3.8 0,-4.1 0.6,0 1.2,0.1 1.8,0.3 0,-0.9 0.1,-1.7 0.2,-1.8 0.3,-0.1 4.5,0.9 4.8,1.2 0.2,0.5 0.2,3.9 0,4.1 M 35.5,9 c -2.8,0 -5,2.3 -5,5 0,2.7 2.3,5 5,5 2.7,0 5,-2.3 5,-5 0,-2.7 -2.2,-5 -5,-5"
   class="st0"
   id="Fill-14" />
			</g>
		</g>
	</g>
</g>
</svg>
